# xmcd
#
# Track frame offsets:
#	150
#	14998
#	26623
#	41173
#	55203
#	70878
#	98627
#	109630
#	139016
#	164681
#	190257
#
# Disc length: 2939 seconds
#
# Revision: 1
# Processed by: cddbd v1.4PL0 Copyright (c) Steve Scherf et al.
# Submitted via: audiograbber 1.80
#
DISCID=9c0b790b
DTITLE=Boogie Hookers - Can't Play Traditional
DYEAR=1900
DGENRE=
TTITLE0=Tribute To Billy G.
TTITLE1=Johnny Guitar
TTITLE2=Taxman Blues
TTITLE3=It's All Over
TTITLE4=Ich Brauch' Schlaf
TTITLE5=Phone Call
TTITLE6=She's Back
TTITLE7=Walking The Dog
TTITLE8=Rock Me Baby (Live)
TTITLE9=Fool For Your Stockings (Live)
TTITLE10=Route 66 (Live)
EXTD=
EXTT0=
EXTT1=
EXTT2=
EXTT3=
EXTT4=
EXTT5=
EXTT6=
EXTT7=
EXTT8=
EXTT9=
EXTT10=
PLAYORDER=
